<?xml version="1.0" standalone="no"?>
<!DOCTYPE svg PUBLIC "-//W3C//DTD SVG 20010904//EN"
 "http://www.w3.org/TR/2001/REC-SVG-20010904/DTD/svg10.dtd">
<svg version="1.0" xmlns="http://www.w3.org/2000/svg"
 width="512.000000pt" height="512.000000pt" viewBox="0 0 512.000000 512.000000"
 preserveAspectRatio="xMidYMid meet">

<g transform="translate(0.000000,512.000000) scale(0.100000,-0.100000)"
fill="#000000" stroke="none">
<path d="M785 2708 c3 -24 64 -609 135 -1301 77 -742 135 -1271 143 -1290 18
-43 77 -93 124 -106 45 -13 463 -15 463 -3 0 5 -40 616 -90 1357 -49 741 -90
1356 -90 1367 0 17 -16 18 -346 18 l-345 0 6 -42z"/>
<path d="M2165 2648 c5 -87 105 -2590 105 -2633 0 -13 40 -15 290 -15 258 0
290 2 290 16 0 44 100 2544 105 2632 l6 102 -401 0 -401 0 6 -102z"/>
<path d="M3650 2733 c0 -10 -41 -625 -90 -1368 -50 -742 -90 -1353 -90 -1357
0 -4 103 -8 228 -8 220 0 231 1 273 23 28 15 54 40 72 69 l28 46 135 1298 c74
715 134 1302 134 1307 0 4 -155 7 -345 7 -322 0 -345 -1 -345 -17z"/>
</g>
</svg>
